<svg id="Capa_1" data-name="Capa 1" xmlns="http://www.w3.org/2000/svg" viewBox="0 0 30 30"><defs><style>.cls-1{fill:#474747;}</style></defs><path class="cls-1" d="M20.14,11.58a2.39,2.39,0,1,0-4.07,1.68,2.41,2.41,0,0,0,1,.6v.94a1.48,1.48,0,0,1-1.48,1.48H12.9v-5a2.49,2.49,0,0,0,1-.59h0a2.38,2.38,0,1,0-3.37,0,2.49,2.49,0,0,0,1,.59v7.44a2.41,2.41,0,0,0-1,.6,2.38,2.38,0,0,0,1.68,4.06,2.41,2.41,0,0,0,1.69-.69h0a2.38,2.38,0,0,0,0-3.37,2.49,2.49,0,0,0-1-.59V17.58h2.72A2.78,2.78,0,0,0,18.4,14.8v-.94a2.36,2.36,0,0,0,1.74-2.28ZM11.48,8.23a1.1,1.1,0,0,1,1.53,0,1.1,1.1,0,0,1,0,1.54,1.09,1.09,0,0,1-1.53,0A1.1,1.1,0,0,1,11.48,8.23ZM13,21.77a1.09,1.09,0,0,1-1.53,0,1.1,1.1,0,0,1,0-1.54,1.1,1.1,0,0,1,1.53,0A1.1,1.1,0,0,1,13,21.77Zm5.51-9.43a1.08,1.08,0,0,1-1.53,0,1,1,0,0,1-.32-.76,1.09,1.09,0,0,1,1.85-.77,1.12,1.12,0,0,1,.32.77A1.07,1.07,0,0,1,18.52,12.34Z"/></svg>